<?xml version="1.0" encoding="UTF-8"?>
<svg width="792px" height="225px" viewBox="0 0 792 225" version="1.1" xmlns="http://www.w3.org/2000/svg" xmlns:xlink="http://www.w3.org/1999/xlink">
    <title>Shape</title>
    <g id="Page-1" stroke="none" stroke-width="1" fill="none" fill-rule="evenodd">
        <g id="Instagram_logo" transform="translate(-0.001693, 0.320186)" fill="#FFFFFF" fill-rule="nonzero">
            <path d="M40.761932,0.787761887 C24.551632,7.57316189 6.731131,26.7427619 1.102831,50.8047579 C-6.024969,81.2922539 23.637132,94.1844539 26.070032,89.9572539 C28.933532,84.9902539 20.754932,83.3105539 19.071432,67.4922539 C16.895632,47.0615619 26.393832,24.2325619 38.347632,14.2158619 C40.569632,12.3548619 40.463932,14.9450619 40.463932,19.7361619 C40.463932,28.3037619 39.990532,105.215664 39.990532,121.267264 C39.990532,142.987064 39.093432,149.845764 37.482232,156.623064 C35.849732,163.491164 33.225232,168.131864 35.213932,169.919464 C37.435832,171.919064 46.922532,167.162764 52.414532,159.497664 C59.000232,150.304564 61.305532,139.264164 61.719432,127.274464 C62.219332,112.821264 62.198032,89.8870539 62.219332,76.8055539 C62.239332,64.8078539 62.421432,29.6759619 62.009032,8.55596189 C61.907932,3.37566189 47.541132,-2.05923811 40.761132,0.781461887 M616.388413,102.434864 C615.865813,113.726464 613.366313,122.552364 610.264213,128.777764 C604.258713,140.829764 591.797113,144.572064 586.506113,127.246864 C583.622713,117.802864 583.488013,102.030464 585.561013,88.8516539 C587.671213,75.4261539 593.563413,65.2868539 603.320213,66.2012539 C612.943713,67.1051539 617.448213,79.5054539 616.388413,102.434364 L616.388413,102.434864 Z M454.152933,172.490764 C454.022333,191.252464 451.069533,207.702564 444.737433,212.480364 C435.756533,219.255064 423.685533,214.173264 426.185033,200.482664 C428.396633,188.367764 438.855933,175.995364 454.178333,160.878264 C454.178333,160.878264 454.210333,164.325664 454.153333,172.490764 L454.152933,172.490764 Z M451.700133,102.325564 C451.150933,112.609964 448.484733,122.941564 445.575933,128.779164 C439.571733,140.831064 427.019533,144.598764 421.817833,127.248264 C418.261233,115.393664 419.113033,100.050764 420.872733,90.3833539 C423.156233,77.8403539 428.691233,66.2039539 438.631933,66.2039539 C448.296733,66.2039539 453.062533,76.8072539 451.700133,102.326364 L451.700133,102.325564 Z M357.716833,102.168264 C357.127633,113.060464 355.002733,122.165764 351.592733,128.779164 C345.423233,140.748164 333.217633,144.544064 327.834633,127.248264 C323.954033,114.776664 325.275133,97.7712539 326.889433,88.5849539 C329.285033,74.9529539 335.283833,65.2881539 344.648733,66.2039539 C354.268233,67.1437539 358.944633,79.5067539 357.716833,102.169064 L357.716833,102.168264 Z M788.420613,114.890864 C786.069013,114.890864 784.995913,117.314764 784.108113,121.394864 C781.028713,135.581464 777.792013,138.784764 773.618113,138.784764 C768.955013,138.784764 764.765113,131.760164 763.688013,117.698164 C762.841513,106.640964 762.977513,86.2842539 764.060013,66.0347539 C764.281213,61.8742539 763.133513,57.7577539 751.974313,53.7038539 C747.172513,51.9601539 740.192513,49.3926579 736.717213,57.7817539 C726.897813,81.4824539 723.055813,100.298864 722.152013,107.942764 C722.105013,108.338364 721.620113,108.419164 721.534813,107.494864 C720.958913,101.372664 719.671213,90.2474539 719.511213,66.8733539 C719.480213,62.3128539 718.514113,58.4309539 713.480413,55.2528539 C710.214313,53.1906539 700.296213,49.5433579 696.724913,53.8824539 C693.630813,57.4311539 690.047513,66.9812539 686.324213,78.3017539 C683.298213,87.5026539 681.190613,93.7268539 681.190613,93.7268539 C681.190613,93.7268539 681.230613,68.9009539 681.266613,59.4840539 C681.282613,55.9314539 678.845713,54.7476539 678.111213,54.5330539 C674.803813,53.5731539 668.287713,51.9695539 665.521613,51.9695539 C662.108913,51.9695539 661.273113,53.8771539 661.273113,56.6566539 C661.273113,57.0205539 660.734513,89.3423539 660.734513,111.943264 C660.734513,112.924964 660.734513,113.996064 660.744513,115.133864 C658.856913,125.521464 652.735413,139.622464 646.078013,139.622464 C639.412613,139.622464 636.267913,133.727264 636.267913,106.783464 C636.267913,91.0651539 636.739813,84.2304539 636.971813,72.8620539 C637.106413,66.3139539 637.366413,61.2855539 637.351713,60.1444539 C637.302713,56.6451539 631.251613,54.8814539 628.436113,54.2296539 C625.607313,53.5723539 623.149113,53.3177539 621.229513,53.4270539 C618.512713,53.5803539 616.590413,55.3627539 616.590413,57.8142539 C616.590413,59.1286539 616.605413,61.6281539 616.605413,61.6281539 C613.106113,56.1292539 607.477913,52.3019539 603.733213,51.1928579 C593.647213,48.1974619 583.122513,50.8515579 575.184113,61.9601539 C568.874613,70.7864539 565.071433,80.7831539 563.574333,95.1457539 C562.479933,105.645864 562.837133,116.293664 564.782133,125.298564 C562.431933,135.459564 558.068733,139.622464 553.291033,139.622464 C546.355033,139.622464 541.326633,128.301264 541.910533,108.721764 C542.295733,95.8435539 544.872633,86.8059539 547.689433,73.7311539 C548.890533,68.1575539 547.914733,65.2394539 545.467133,62.4426539 C543.222233,59.8778539 538.439233,58.5674539 531.563133,60.1791539 C526.665433,61.3282539 519.662833,62.5639539 513.256033,63.5131539 C513.256033,63.5131539 513.642633,61.9707539 513.959933,59.2513539 C515.626233,44.9900619 500.129233,46.1471619 495.184833,50.7022579 C492.233433,53.4217539 490.224433,56.6291539 489.461933,62.3960539 C488.252833,71.5476539 495.716733,75.8641539 495.716733,75.8641539 C493.267833,87.0739539 487.265033,101.717764 481.067533,112.305064 C477.748233,117.977464 475.208733,122.180764 471.930633,126.648964 C471.918633,124.985164 471.909633,123.321564 471.903633,121.665564 C471.828633,98.0980539 472.142233,79.5496539 472.280833,72.8642539 C472.415533,66.3162539 472.678133,61.4211539 472.663433,60.2800539 C472.626433,57.7205539 471.131733,56.7540539 468.023033,55.5302539 C465.274233,54.4478539 462.024133,53.6986539 458.652833,53.4373539 C454.397633,53.1054539 451.834133,55.3623539 451.900733,58.0311539 C451.913733,58.5350539 451.913733,61.6291539 451.913733,61.6291539 C448.414333,56.1301539 442.786133,52.3029539 439.041533,51.1937579 C428.955433,48.1996619 418.430833,50.8538579 410.492333,61.9610539 C404.184233,70.7873539 400.053033,83.1729539 398.882533,95.0373539 C397.792133,106.095064 397.993433,115.492064 399.479833,123.407864 C397.876133,131.334464 393.265033,139.623464 388.051333,139.623464 C381.385933,139.623464 377.593333,133.728164 377.593333,106.784464 C377.593333,91.0661539 378.065233,84.2314539 378.297233,72.8642539 C378.431833,66.3162539 378.691833,61.2865539 378.677133,60.1467539 C378.628133,56.6474539 372.576933,54.8837539 369.761533,54.2305539 C366.815433,53.5493539 364.271933,53.2987539 362.318933,53.4426539 C359.742133,53.6346539 357.930433,55.9422539 357.930433,57.6632539 L357.930433,61.6291539 C354.431133,56.1301539 348.802933,52.3029539 345.058233,51.1937579 C334.972233,48.1996619 324.506233,50.8965579 316.509133,61.9610539 C311.294133,69.1756539 307.072233,77.1741539 304.899333,94.8800539 C304.271433,99.9967639 303.994133,104.788164 304.030133,109.266664 C301.950533,121.984564 292.765633,136.642664 285.252433,136.642664 C280.855933,136.642664 276.668733,128.115164 276.668733,109.941164 C276.668733,85.7324539 278.167133,51.2644579 278.420433,47.9424619 C278.420433,47.9424619 287.913233,47.7811619 289.751633,47.7597619 C294.486633,47.7077619 298.775233,47.8197619 305.081933,47.4971619 C308.245333,47.3358619 311.292733,35.9833619 308.028033,34.5783619 C306.548333,33.9424619 296.090333,33.3852619 291.944533,33.2972619 C288.458533,33.2182619 278.753733,32.5000619 278.753733,32.5000619 C278.753733,32.5000619 279.624233,9.62176189 279.826833,7.20496189 C279.998833,5.19066189 277.392633,4.15356189 275.898233,3.52426189 C272.264333,1.98726189 269.012933,1.25136189 265.159033,0.456861887 C259.834633,-0.641538113 257.419133,0.432861887 256.947233,4.92666189 C256.236733,11.7467619 255.868733,31.7228619 255.868733,31.7228619 C251.961533,31.7228619 238.614733,30.9590619 234.706233,30.9590619 C231.074933,30.9590619 227.155633,46.5760619 232.176033,46.7679619 C237.952233,46.9919619 248.018333,47.1852619 254.691633,47.3865619 C254.691633,47.3865619 254.394433,82.4224539 254.394433,93.2390539 C254.394433,94.3898539 254.404433,95.4980539 254.406433,96.5733539 C250.733733,115.716364 237.797633,126.056964 237.797633,126.056964 C240.575733,113.392764 234.900833,103.882564 224.678833,95.8321539 C220.912833,92.8655539 213.478233,87.2493539 205.159833,81.0949539 C205.159833,81.0949539 209.977633,76.3465539 214.250133,66.7937539 C217.277533,60.0270539 217.408233,52.2831539 209.977633,50.5755579 C197.699933,47.7520619 187.576633,56.7689539 184.557133,66.3951539 C182.217633,73.8523539 183.465433,79.3859539 188.048533,85.1341539 C188.383133,85.5541539 188.745733,85.9833539 189.120333,86.4152539 C186.348833,91.7571539 182.541533,98.9491539 179.316833,104.526464 C170.366533,120.011464 163.605233,132.259764 158.495533,132.259764 C154.410933,132.259764 154.465633,119.824564 154.465633,108.181764 C154.465633,98.1446539 155.206833,83.0545539 155.798733,67.4309539 C155.994633,62.2639539 153.411133,59.3204539 149.080033,56.6543539 C146.448533,55.0346539 140.832233,51.8499539 137.579533,51.8499539 C132.710933,51.8499539 118.664533,52.5124539 105.392433,90.9037539 C103.719833,95.7426539 100.433933,104.559764 100.433933,104.559764 L100.716733,58.3926539 C100.716733,57.3102539 100.140233,56.2637539 98.820233,55.5478539 C96.583733,54.3334539 90.610333,51.8499539 85.298833,51.8499539 C82.768133,51.8499539 81.505233,53.0270539 81.505233,55.3732539 L81.041933,127.602064 C81.041933,133.090064 81.185033,139.492364 81.727633,142.292564 C82.268233,145.096264 83.144033,147.377064 84.228733,148.734064 C85.311833,150.088464 86.564733,151.121664 88.630433,151.548064 C90.553033,151.943864 101.080733,153.295764 101.627933,149.272564 C102.283533,144.451064 102.308633,139.235964 107.836733,119.786164 C116.442833,89.5053539 127.663633,74.7308539 132.938533,69.4838539 C133.860833,68.5667539 134.913933,68.5120539 134.863233,70.0130539 C134.638033,76.6518539 133.846133,93.2406539 133.313033,107.333964 C131.884133,145.049364 138.745233,152.039964 148.550133,152.039964 C156.051333,152.039964 166.625333,144.586664 177.960433,125.719764 C185.027133,113.962164 191.888433,102.433564 196.818133,94.1244539 C200.253533,97.3046539 204.108733,100.727464 207.961333,104.383964 C216.914233,112.881264 219.853733,120.955464 217.903433,128.615264 C216.411733,134.470964 210.794133,140.505664 200.796033,134.640164 C197.881933,132.928964 196.638133,131.606864 193.708033,129.677664 C192.133733,128.641264 189.730133,128.331464 188.289133,129.417164 C184.545833,132.239564 182.404933,135.829464 181.182533,140.273964 C179.993433,144.598664 184.324533,146.884764 188.814333,148.884364 C192.680233,150.605364 200.989333,152.164864 206.288333,152.342464 C226.935033,153.032964 243.474533,142.373564 254.988233,114.877664 C257.049233,138.623764 265.820833,152.061164 281.060633,152.061164 C291.249333,152.061164 301.464633,138.891364 305.931833,125.935564 C307.214233,131.216764 309.112533,135.809264 311.564033,139.692864 C323.307133,158.298664 346.088033,154.294064 357.531233,138.494764 C361.069233,133.612864 361.607733,131.858564 361.607733,131.858564 C363.276733,146.776964 375.290433,151.989364 382.169133,151.989364 C389.873033,151.989364 397.827433,148.347364 403.402333,135.796464 C404.055633,137.158564 404.768733,138.459364 405.547333,139.692464 C417.290333,158.298264 440.071333,154.293664 451.514433,138.494364 C452.054333,137.753264 452.522233,137.080964 452.931533,136.477564 L453.267433,146.276664 C453.267433,146.276664 446.739333,152.265164 442.732133,155.938864 C425.095533,172.119764 411.684833,184.396064 410.698333,198.691964 C409.431933,216.920464 424.215733,223.695164 435.400233,224.582964 C447.277933,225.525564 457.449333,218.964264 463.701433,209.781764 C469.200333,201.699464 472.799733,184.304064 472.535733,167.123364 C472.430433,160.243464 472.257133,151.495664 472.121133,142.118864 C478.319933,134.920264 485.303933,125.821964 491.734733,115.172064 C498.742733,103.565964 506.253233,87.9799539 510.099133,75.8502539 C510.099133,75.8502539 516.624633,75.9062539 523.588533,75.4503539 C525.816133,75.3050539 526.456033,75.7595539 526.044133,77.3926539 C525.546833,79.3655539 517.245833,111.383464 524.821633,132.712664 C530.007333,147.313864 541.697133,152.011564 548.627733,152.011564 C556.740833,152.011564 564.502033,145.884664 568.661213,136.786564 C569.162413,137.800864 569.686313,138.782364 570.258213,139.688464 C582.001313,158.294264 604.702313,154.265664 616.225413,138.490364 C618.826213,134.931164 620.301913,131.854164 620.301913,131.854164 C622.774813,147.293864 634.781813,152.063564 641.659113,152.063564 C648.823113,152.063564 655.621813,149.126664 661.138113,136.074664 C661.368713,141.821464 661.731313,146.520564 662.304513,148.002064 C662.653813,148.908064 664.689413,150.045464 666.170413,150.594764 C672.723813,153.024964 679.407913,151.875764 681.880713,151.375864 C683.593713,151.029164 684.929513,149.654864 685.112113,146.106064 C685.592013,136.787964 685.297413,121.132164 688.122213,109.497064 C692.864013,89.9701539 697.287113,82.3956539 699.385413,78.6457539 C700.559813,76.5447539 701.884913,76.1981539 701.932913,78.4217539 C702.031913,82.9208539 702.255513,96.1330539 704.092513,113.884264 C705.441513,126.939664 707.243913,134.656264 708.628913,137.098464 C712.581513,144.082464 717.463213,144.413164 721.438513,144.413164 C723.967313,144.413164 729.255613,143.714364 728.782413,139.269964 C728.551813,137.103664 728.955713,123.715564 733.630813,104.477964 C736.683513,91.9151539 741.773213,80.5638539 743.608913,76.4140539 C744.286113,74.8836539 744.600713,76.0900539 744.590013,76.3250539 C744.203413,84.9767539 743.335613,113.275364 746.860213,128.752364 C751.638013,149.718964 765.459313,152.065164 770.275713,152.065164 C780.557713,152.065164 788.966813,144.243764 791.799613,123.663964 C792.482113,118.711364 791.471613,114.887164 788.444213,114.887164" id="Shape"></path>
        </g>
    </g>
</svg>