<?xml version="1.0" encoding="UTF-8"?>
<svg width="504px" height="504px" viewBox="0 0 504 504" version="1.1" xmlns="http://www.w3.org/2000/svg" xmlns:xlink="http://www.w3.org/1999/xlink">
    <title>Instagram_logo_icon</title>
    <g id="Page-1" stroke="none" stroke-width="1" fill="none" fill-rule="evenodd">
        <g id="Instagram_logo_icon" transform="translate(0.079000, 0.079000)" fill="#FFFFFF" fill-rule="nonzero">
            <path d="M251.921,45.391 C319.187,45.391 327.154,45.649 353.721,46.861 C378.283,47.982 391.621,52.085 400.499,55.535 C411.441091,59.5735199 421.338982,66.0129923 429.465,74.38 C437.832008,82.5060183 444.27148,92.4039094 448.31,103.346 C451.76,112.223 455.864,125.562 456.984,150.124 C458.196,176.689 458.453,184.656 458.453,251.924 C458.453,319.192 458.196,327.157 456.984,353.724 C455.863,378.286 451.759,391.624 448.31,400.502 C439.834881,422.472419 422.469419,439.837881 400.499,448.313 C391.622,451.763 378.283,455.867 353.721,456.987 C327.161,458.199 319.194,458.456 251.921,458.456 C184.648,458.456 176.684,458.199 150.121,456.987 C125.559,455.866 112.221,451.762 103.343,448.313 C92.4008941,444.274511 82.5029966,437.835034 74.377,429.468 C66.0100187,421.34196 59.5705504,411.444075 55.532,400.502 C52.082,391.625 47.978,378.286 46.858,353.724 C45.646,327.16 45.389,319.192 45.389,251.924 C45.389,184.656 45.646,176.691 46.858,150.124 C47.979,125.562 52.082,112.224 55.532,103.346 C59.5709706,92.4033641 66.0111445,82.5051035 74.379,74.379 C82.50504,66.0120187 92.4029247,59.5725504 103.345,55.534 C112.222,52.084 125.561,47.98 150.123,46.86 C176.688,45.648 184.655,45.391 251.923,45.391 M251.923,0 C183.505,0 174.923,0.29 148.057,1.516 C121.242,2.74 102.93,6.998 86.906,13.226 C70.0965987,19.5516312 54.8693212,29.4677899 42.286,42.283 C29.4679019,54.8655323 19.5489743,70.0928692 13.221,86.903 C6.998,102.928 2.74,121.24 1.521,148.055 C0.29,174.921 0,183.503 0,251.921 C0,320.339 0.29,328.921 1.521,355.787 C2.745,382.602 7.003,400.914 13.231,416.938 C19.55666,433.747387 29.4728149,448.974658 42.288,461.558 C54.8712803,474.37326 70.0985695,484.289426 86.908,490.615 C102.933,496.843 121.245,501.101 148.059,502.325 C174.929,503.551 183.508,503.841 251.925,503.841 C320.342,503.841 328.925,503.551 355.791,502.325 C382.606,501.101 400.918,496.843 416.942,490.615 C450.780743,477.527469 477.531469,450.776743 490.619,416.938 C496.847,400.913 501.105,382.601 502.329,355.787 C503.555,328.917 503.845,320.338 503.845,251.921 C503.845,183.504 503.555,174.921 502.329,148.055 C501.105,121.24 496.847,102.928 490.619,86.904 C484.293426,70.0945695 474.37726,54.8672803 461.562,42.284 C448.978422,29.466235 433.750036,19.5479735 416.939,13.221 C400.914,6.998 382.602,2.74 355.787,1.521 C328.921,0.29 320.339,0 251.921,0 L251.921,0 L251.923,0 Z" id="Shape"></path>
            <path d="M251.921,122.556 C180.474683,122.556 122.556,180.474683 122.556,251.921 C122.556,323.367317 180.474683,381.286 251.921,381.286 C323.367317,381.286 381.286,323.367317 381.286,251.921 C381.286,180.474683 323.367317,122.556 251.921,122.556 Z M251.921,335.894 C205.544123,335.894 167.949,298.29721 167.949,251.920333 C167.949,205.543456 205.545456,167.948 251.922333,167.948 C298.29921,167.948 335.895,205.544123 335.895,251.921 C335.895,298.298169 298.298169,335.894 251.921,335.894 Z" id="Shape"></path>
            <circle id="Oval" cx="386.397" cy="117.445" r="30.23"></circle>
        </g>
    </g>
</svg>